<svg width="36" height="34" viewBox="0 0 36 34" fill="none" xmlns="http://www.w3.org/2000/svg">
<path d="M2.0501 14.1427L14.8435 22.9581C15.9839 23.7408 16.5542 24.1321 17.1706 24.2842C17.7151 24.4186 18.283 24.4186 18.8277 24.2842C19.444 24.1321 20.0143 23.7408 21.1548 22.9581L33.9482 14.1427M14.9742 3.2873L4.66312 9.95381C3.6908 10.5824 3.20464 10.8967 2.85202 11.3217C2.53993 11.6977 2.30511 12.135 2.16173 12.6071C1.99976 13.1405 1.99976 13.7315 1.99976 14.9135V26.5881C1.99976 28.6381 1.99976 29.6632 2.38729 30.4462C2.72816 31.1349 3.27209 31.6949 3.94112 32.0458C4.70169 32.4448 5.69734 32.4448 7.68864 32.4448H28.3109C30.3022 32.4448 31.2979 32.4448 32.0584 32.0458C32.7274 31.6949 33.2714 31.1349 33.6122 30.4462C33.9998 29.6632 33.9998 28.6381 33.9998 26.5881V14.9135C33.9998 13.7315 33.9998 13.1405 33.8378 12.6071C33.6943 12.135 33.4597 11.6977 33.1475 11.3217C32.795 10.8967 32.3087 10.5824 31.3365 9.95381L21.0254 3.2873C19.9279 2.57786 19.3793 2.22314 18.7907 2.08487C18.27 1.96259 17.7295 1.96259 17.2088 2.08487C16.6202 2.22314 16.0716 2.57786 14.9742 3.2873Z" stroke="white" stroke-width="3" stroke-linecap="round" stroke-linejoin="round"/>
</svg>
