<svg width="59" height="58" viewBox="0 0 59 58" fill="none" xmlns="http://www.w3.org/2000/svg">
<circle cx="29.4998" cy="28.9932" r="27.5" stroke="white" stroke-width="3"/>
<path fill-rule="evenodd" clip-rule="evenodd" d="M28.4105 36.7433C33.2922 36.7433 37.2497 32.7858 37.2497 27.904C37.2497 23.0222 33.2922 19.0647 28.4105 19.0647C23.5286 19.0647 19.5712 23.0222 19.5712 27.904C19.5712 32.7858 23.5286 36.7433 28.4105 36.7433ZM28.4105 33.7968C31.6649 33.7968 34.3033 31.1585 34.3033 27.904C34.3033 24.6494 31.6649 22.0111 28.4105 22.0111C25.1559 22.0111 22.5176 24.6494 22.5176 27.904C22.5176 31.1585 25.1559 33.7968 28.4105 33.7968Z" fill="white"/>
<path d="M37.839 17.886C36.8626 17.886 36.0712 18.6775 36.0712 19.6538C36.0712 20.6302 36.8626 21.4217 37.839 21.4217C38.8154 21.4217 39.6069 20.6302 39.6069 19.6538C39.6069 18.6775 38.8154 17.886 37.839 17.886Z" fill="white"/>
<path fill-rule="evenodd" clip-rule="evenodd" d="M13.4807 16.9073C12.4998 18.8325 12.4998 21.3527 12.4998 26.3932V30.5932C12.4998 35.6336 12.4998 38.1539 13.4807 40.079C14.3436 41.7725 15.7204 43.1494 17.4138 44.0122C19.3391 44.9932 21.8593 44.9932 26.8998 44.9932H31.0998C36.1402 44.9932 38.6605 44.9932 40.5856 44.0122C42.2791 43.1494 43.656 41.7725 44.5188 40.079C45.4998 38.1539 45.4998 35.6336 45.4998 30.5932V26.3932C45.4998 21.3527 45.4998 18.8325 44.5188 16.9073C43.656 15.2138 42.2791 13.837 40.5856 12.9741C38.6605 11.9932 36.1402 11.9932 31.0998 11.9932H26.8998C21.8593 11.9932 19.3391 11.9932 17.4138 12.9741C15.7204 13.837 14.3436 15.2138 13.4807 16.9073ZM31.0998 14.9932H26.8998C24.33 14.9932 22.5831 14.9955 21.2329 15.1058C19.9176 15.2133 19.245 15.408 18.7758 15.6471C17.6468 16.2224 16.729 17.1402 16.1537 18.2692C15.9146 18.7384 15.7199 19.411 15.6124 20.7263C15.5021 22.0765 15.4998 23.8234 15.4998 26.3932V30.5932C15.4998 33.163 15.5021 34.9097 15.6124 36.26C15.7199 37.5754 15.9146 38.248 16.1537 38.7172C16.729 39.8461 17.6468 40.7639 18.7758 41.3392C19.245 41.5783 19.9176 41.7731 21.2329 41.8805C22.5831 41.9908 24.33 41.9932 26.8998 41.9932H31.0998C33.6696 41.9932 35.4163 41.9908 36.7666 41.8805C38.082 41.7731 38.7546 41.5783 39.2238 41.3392C40.3527 40.7639 41.2705 39.8461 41.8458 38.7172C42.0849 38.248 42.2797 37.5754 42.3871 36.26C42.4974 34.9097 42.4998 33.163 42.4998 30.5932V26.3932C42.4998 23.8234 42.4974 22.0765 42.3871 20.7263C42.2797 19.411 42.0849 18.7384 41.8458 18.2692C41.2705 17.1402 40.3527 16.2224 39.2238 15.6471C38.7546 15.408 38.082 15.2133 36.7666 15.1058C35.4163 14.9955 33.6696 14.9932 31.0998 14.9932Z" fill="white"/>
</svg>
