<svg width="58" height="57" viewBox="0 0 58 57" fill="none" xmlns="http://www.w3.org/2000/svg">
<g clip-path="url(#clip0_2030_626)">
<path d="M28.9998 -0.00683594C13.258 -0.00683594 0.499756 12.7514 0.499756 28.4932C0.499756 44.235 13.258 56.9932 28.9998 56.9932C44.7416 56.9932 57.4998 44.235 57.4998 28.4932C57.4998 12.7514 44.7416 -0.00683594 28.9998 -0.00683594ZM46.79 46.2723C44.4744 48.5879 41.7914 50.4025 38.7966 51.6605C35.7017 52.9742 32.4064 53.6311 28.9998 53.6311C25.6042 53.6311 22.3089 52.9631 19.2029 51.6605C16.2082 50.3914 13.514 48.5768 11.2095 46.2723C8.8939 43.9566 7.07925 41.2736 5.82124 38.2789C4.50757 35.184 3.8396 31.8887 3.8396 28.4932C3.8396 25.0977 4.50757 21.8023 5.81011 18.6963C7.07925 15.7016 8.8939 13.0074 11.1984 10.7029C13.5251 8.3873 16.2082 6.57266 19.2029 5.30352C22.3089 4.00098 25.6042 3.33301 28.9998 3.33301C32.3953 3.33301 35.6906 4.00098 38.7966 5.30352C41.7914 6.57266 44.4855 8.38731 46.79 10.6918C49.1056 13.0074 50.9203 15.6904 52.1783 18.6852C53.4919 21.7801 54.1488 25.0754 54.1488 28.482C54.1488 31.8775 53.4808 35.1729 52.1783 38.2789C50.9091 41.2736 49.0945 43.9678 46.79 46.2723Z" fill="white"/>
<path d="M21.0287 22.6372H15.4734V40.4163H21.0287V22.6372Z" fill="white"/>
<path d="M18.1342 14.2432C16.0857 14.2432 14.7386 15.568 14.7386 17.327C14.7386 19.0525 16.0412 20.4107 18.0562 20.4107H18.1008C20.1937 20.4107 21.4963 19.0414 21.4851 17.327C21.4406 15.568 20.1826 14.2432 18.1342 14.2432Z" fill="white"/>
<path d="M36.2027 22.4702C33.0188 22.4702 31.026 24.2069 30.6586 25.4315V22.6372H24.4131C24.491 24.1179 24.4131 40.4163 24.4131 40.4163H30.6586V30.8087C30.6586 30.2632 30.6363 29.7288 30.7922 29.3503C31.2152 28.2815 32.1393 27.1683 33.798 27.1683C35.9689 27.1683 36.9486 28.8159 36.9486 31.2206V40.4163H43.2498V30.5304C43.2498 25.0308 40.1549 22.4702 36.2027 22.4702Z" fill="white"/>
</g>
<defs>
<clipPath id="clip0_2030_626">
<rect width="57" height="57" fill="white" transform="translate(0.499756 -0.00683594)"/>
</clipPath>
</defs>
</svg>
