<svg width="30" height="31" viewBox="0 0 30 31" fill="none" xmlns="http://www.w3.org/2000/svg">
<path fill-rule="evenodd" clip-rule="evenodd" d="M21.1212 15.5175C20.7556 15.8831 20.1621 15.8831 19.7956 15.5175L15.9321 11.6456V21.5737C15.9321 22.0894 15.5131 22.5112 14.9946 22.5112C14.4762 22.5112 14.0571 22.0894 14.0571 21.5737V11.6456L10.1937 15.5175C9.82713 15.8831 9.23275 15.8831 8.86806 15.5175C8.5015 15.1425 8.5015 14.5519 8.86806 14.1862L14.1706 8.87994C14.3956 8.65494 14.7031 8.58932 14.9946 8.64557C15.2862 8.58932 15.5937 8.65494 15.8187 8.87994L21.1212 14.1862C21.4878 14.5519 21.4878 15.1425 21.1212 15.5175ZM14.9946 0.0112305C6.70994 0.0112305 -0.00537109 6.72373 -0.00537109 15.0112C-0.00537109 23.2987 6.70994 30.0112 14.9946 30.0112C23.2793 30.0112 29.9946 23.2987 29.9946 15.0112C29.9946 6.72373 23.2793 0.0112305 14.9946 0.0112305Z" fill="#015C92"/>
</svg>
